<svg width="129" height="20" viewBox="0 0 129 20" fill="none" xmlns="http://www.w3.org/2000/svg">
<path d="M0.458222 19.3772L3.65403 0.575378H17.5337L16.9238 4.19561H7.74861L7.06434 8.13698H15.1584L14.5509 11.8156H6.45687L5.7726 15.757H14.9478L14.3379 19.3772H0.458222Z" fill="white"/>
<path d="M16.6093 19.3772L19.8051 0.575378H24.5096L21.9237 15.757H30.8067L30.1968 19.3772H16.6093Z" fill="white"/>
<path d="M32.047 19.3772L35.2429 0.575378H49.1225L48.5126 4.19561H39.3374L38.6532 8.13698H46.7472L46.1397 11.8156H38.0457L37.3614 15.757H46.5366L45.9267 19.3772H32.047Z" fill="white"/>
<path d="M48.1982 19.3772L51.394 0.575378H56.0984L54.8518 7.87423L62.5854 0.575378H67.9619L59.9227 8.25377L65.1752 19.3772H60.1493L56.5115 11.2609L53.865 13.6841L52.9026 19.3772H48.1982Z" fill="white"/>
<path d="M70.9289 19.3772L73.5148 4.19561H67.9921L68.602 0.575378H84.3518L83.7419 4.19561H78.2193L75.6334 19.3772H70.9289Z" fill="white"/>
<path d="M82.9544 19.3772L86.1502 0.575378H95.5592C96.8059 0.575378 97.8691 0.847869 98.7488 1.39285C99.6472 1.91837 100.292 2.66771 100.683 3.64089C101.092 4.59461 101.178 5.7235 100.94 7.02756C100.739 8.29269 100.23 9.40212 99.412 10.3558C98.6138 11.3095 97.6205 12.02 96.4321 12.4871C96.6552 12.7012 96.8211 12.9445 96.9298 13.217C97.0571 13.47 97.1792 13.8301 97.2959 14.2972L98.675 19.3772H93.766L92.4574 14.5892C92.3415 14.1415 92.1634 13.8398 91.9232 13.6841C91.7017 13.5089 91.3377 13.4213 90.8312 13.4213H88.6689L87.6589 19.3772H82.9544ZM89.2788 9.80112H92.756C93.6716 9.80112 94.422 9.57729 95.0074 9.12963C95.6114 8.6625 95.9915 7.96181 96.1477 7.02756C96.3233 6.09331 96.2748 5.39262 96.0022 4.92549C95.7483 4.4389 95.0564 4.19561 93.9266 4.19561H90.2448L89.2788 9.80112Z" fill="white"/>
<path d="M101.246 19.3772L104.442 0.575378H109.146L105.95 19.3772H101.246Z" fill="white"/>
<path d="M108.95 19.3772L112.146 0.575378H116.851L115.604 7.87423L123.337 0.575378H128.714L120.675 8.25377L125.927 19.3772H120.901L117.264 11.2609L114.617 13.6841L113.655 19.3772H108.95Z" fill="white"/>
</svg>
