<svg width="533" height="120" viewBox="0 0 533 120" fill="none" xmlns="http://www.w3.org/2000/svg">
<path d="M119.149 92.4144L129.399 32.1128H173.914L171.958 43.7237H142.531L140.336 56.3645H166.296L164.347 68.1626H138.388L136.193 80.8035H165.62L163.664 92.4144H119.149Z" fill="white"/>
<path d="M170.949 92.4144L181.199 32.1128H196.287L187.994 80.8035H216.483L214.527 92.4144H170.949Z" fill="white"/>
<path d="M220.461 92.4144L230.711 32.1128H275.226L273.27 43.7237H243.843L241.649 56.3645H267.608L265.66 68.1626H239.7L237.506 80.8035H266.933L264.977 92.4144H220.461Z" fill="white"/>
<path d="M272.261 92.4144L282.511 32.1128H297.599L293.601 55.5218L318.404 32.1128H335.648L309.865 56.7391L326.711 92.4144H310.591L298.924 66.3836L290.436 74.1553L287.35 92.4144H272.261Z" fill="white"/>
<path d="M345.164 92.4144L353.457 43.7237H335.745L337.701 32.1128H388.214L386.258 43.7237H368.546L360.252 92.4144H345.164Z" fill="white"/>
<path d="M383.732 92.4144L393.982 32.1128H424.159C428.157 32.1128 431.567 32.9867 434.389 34.7346C437.27 36.42 439.337 38.8234 440.591 41.9446C441.905 45.0033 442.18 48.6239 441.415 52.8063C440.771 56.8639 439.138 60.4221 436.515 63.4808C433.956 66.5396 430.77 68.8181 426.958 70.3163C427.674 71.0029 428.206 71.7832 428.555 72.6572C428.963 73.4687 429.354 74.6235 429.729 76.1217L434.152 92.4144H418.407L414.211 77.0581C413.839 75.6223 413.268 74.6547 412.497 74.1553C411.787 73.5935 410.619 73.3126 408.995 73.3126H402.06L398.821 92.4144H383.732ZM404.016 61.7018H415.168C418.105 61.7018 420.512 60.9839 422.389 59.5481C424.326 58.05 425.545 55.8027 426.046 52.8063C426.609 49.81 426.454 47.5627 425.58 46.0646C424.765 44.504 422.546 43.7237 418.923 43.7237H407.114L404.016 61.7018Z" fill="white"/>
<path d="M442.397 92.4144L452.646 32.1128H467.735L457.485 92.4144H442.397Z" fill="white"/>
<path d="M467.107 92.4144L477.357 32.1128H492.445L488.447 55.5218L513.25 32.1128H530.494L504.71 56.7391L521.556 92.4144H505.437L493.769 66.3836L485.282 74.1553L482.195 92.4144H467.107Z" fill="white"/>
<path d="M82.6384 46.9579H45.1373L49.5667 2.8978C49.6848 1.72391 49.0733 0.607404 48.0769 0.179586C47.0781 -0.25345 45.9472 0.116978 45.3144 1.07174L0.453832 68.8966C-0.0703288 69.6896 -0.145884 70.7409 0.2555 71.6148C0.659246 72.4939 1.47382 73.0443 2.36159 73.0443H39.8627L35.4333 117.104C35.3152 118.278 35.9267 119.395 36.9231 119.823C37.2017 119.943 37.4898 120 37.7778 120C38.5145 120 39.2299 119.619 39.6856 118.93L84.5462 51.1056C85.0703 50.3126 85.1459 49.2613 84.7445 48.3874C84.3407 47.5083 83.5262 46.9579 82.6384 46.9579Z" fill="url(#paint0_linear_91_467)"/>
<path d="M45.1373 46.9579L49.5667 2.8978C49.6848 1.7239 49.0733 0.607404 48.0769 0.179586C47.0781 -0.25345 45.9472 0.116978 45.3144 1.07174L0.453832 68.8966C-0.0703288 69.6896 -0.145884 70.7409 0.2555 71.6148C0.659246 72.4939 1.47382 73.0443 2.36159 73.0443H39.8627C42.5 60 42.5 60 45.1373 46.9579Z" fill="url(#paint1_linear_91_467)"/>
<path d="M45.1442 46.9614L79.2074 46.9614L67.7758 72.2136L36.0938 110.514L39.6393 73.0444L45.1442 46.9614Z" fill="url(#paint2_linear_91_467)"/>
<defs>
<linearGradient id="paint0_linear_91_467" x1="58.6965" y1="47.2471" x2="37.6577" y2="121.545" gradientUnits="userSpaceOnUse">
<stop stop-color="#029BF1"/>
<stop offset="1" stop-color="#A1EEFF"/>
</linearGradient>
<linearGradient id="paint1_linear_91_467" x1="44.0741" y1="3.15789" x2="24.6796" y2="73.0135" gradientUnits="userSpaceOnUse">
<stop stop-color="#A2EEFF"/>
<stop offset="1" stop-color="#029AF0"/>
</linearGradient>
<linearGradient id="paint2_linear_91_467" x1="39.8417" y1="60.7" x2="56.5828" y2="67.2157" gradientUnits="userSpaceOnUse">
<stop stop-color="#005796"/>
<stop offset="1" stop-color="#0091E2" stop-opacity="0"/>
</linearGradient>
</defs>
</svg>
