<svg width="29" height="42" viewBox="0 0 29 42" fill="none" xmlns="http://www.w3.org/2000/svg">
<path d="M28.0893 16.5806H15.3424L16.848 1.65055C16.8881 1.25277 16.6803 0.874432 16.3416 0.729463C16.0021 0.582726 15.6177 0.708248 15.4026 1.03178L0.15426 24.0147C-0.0239052 24.2834 -0.0495867 24.6396 0.0868461 24.9358C0.224081 25.2337 0.50096 25.4202 0.802717 25.4202H13.5495L12.044 40.3502C12.0038 40.748 12.2117 41.1263 12.5504 41.2713C12.6451 41.312 12.743 41.3314 12.8409 41.3314C13.0913 41.3314 13.3345 41.2023 13.4894 40.969L28.7377 17.9861C28.9159 17.7174 28.9416 17.3611 28.8051 17.065C28.6679 16.7671 28.391 16.5806 28.0893 16.5806Z" fill="url(#paint0_linear_119_282)"/>
<path d="M15.3424 16.5806L16.848 1.65055C16.8881 1.25277 16.6803 0.874432 16.3416 0.729463C16.0021 0.582726 15.6177 0.708248 15.4026 1.03178L0.15426 24.0147C-0.0239052 24.2834 -0.0495867 24.6396 0.0868461 24.9358C0.224081 25.2336 0.50096 25.4202 0.802717 25.4202H13.5495C14.446 21 14.446 21 15.3424 16.5806Z" fill="url(#paint1_linear_119_282)"/>
<path d="M15.3443 16.5818L26.9226 16.5818L23.0369 25.1387L12.268 38.117L13.4732 25.4202L15.3443 16.5818Z" fill="url(#paint2_linear_119_282)"/>
<defs>
<linearGradient id="paint0_linear_119_282" x1="19.9513" y1="16.6786" x2="12.8409" y2="41.8664" gradientUnits="userSpaceOnUse">
<stop stop-color="#029BF1"/>
<stop offset="1" stop-color="#A1EEFF"/>
</linearGradient>
<linearGradient id="paint1_linear_119_282" x1="14.981" y1="1.73868" x2="8.42647" y2="25.4202" gradientUnits="userSpaceOnUse">
<stop stop-color="#A2EEFF"/>
<stop offset="1" stop-color="#029AF0"/>
</linearGradient>
<linearGradient id="paint2_linear_119_282" x1="13.542" y1="21.2372" x2="19.2277" y2="23.457" gradientUnits="userSpaceOnUse">
<stop stop-color="#005796"/>
<stop offset="1" stop-color="#0091E2" stop-opacity="0"/>
</linearGradient>
</defs>
</svg>
