<svg width="40" height="40" viewBox="0 0 40 40" fill="none" xmlns="http://www.w3.org/2000/svg">
<path d="M7.15626 16.6062C6.59768 16.5856 6.04365 16.4975 5.50626 16.3437C5.32953 16.2922 5.14241 16.2878 4.96345 16.3309C4.78449 16.3741 4.61991 16.4632 4.48601 16.5895C4.35211 16.7158 4.25355 16.8749 4.2001 17.0511C4.14664 17.2272 4.14015 17.4143 4.18126 17.5937C4.5103 18.9139 5.20019 20.1164 6.17374 21.0668C7.14729 22.0171 8.36609 22.6778 9.69376 22.975C9.08366 23.1469 8.45262 23.2331 7.81876 23.2312C7.6716 23.2309 7.52682 23.2684 7.3984 23.3403C7.26998 23.4122 7.16226 23.5159 7.08562 23.6416C7.00898 23.7672 6.96602 23.9105 6.96088 24.0576C6.95574 24.2046 6.98859 24.3505 7.05626 24.4812C7.65256 25.5856 8.52904 26.5135 9.59762 27.1718C10.6662 27.83 11.8892 28.1954 13.1438 28.2312H13.7688C14.1003 28.2312 14.4182 28.3629 14.6526 28.5973C14.8871 28.8318 15.0188 29.1497 15.0188 29.4812C15.0188 29.8127 14.8871 30.1307 14.6526 30.3651C14.4182 30.5995 14.1003 30.7312 13.7688 30.7312C12.8196 30.7227 11.8735 30.6222 10.9438 30.4312C10.3431 30.2883 9.714 30.3209 9.13126 30.525C8.05281 30.9211 6.92985 31.1835 5.78751 31.3062C5.57737 31.3187 5.37966 31.41 5.23372 31.5617C5.08779 31.7134 5.00435 31.9145 5.00001 32.125C4.99935 32.2847 5.04506 32.4412 5.13159 32.5754C5.21813 32.7097 5.34177 32.8159 5.48751 32.8812C8.01764 33.9983 10.753 34.5752 13.5188 34.575C26.7188 34.575 33.9375 23.3625 33.9375 13.6375C33.9359 13.3525 33.9966 13.0705 34.1154 12.8114C34.2341 12.5523 34.4081 12.3223 34.625 12.1375C35.3793 11.5038 36.0681 10.7961 36.6813 10.025C36.7333 9.95503 36.7614 9.87021 36.7615 9.78306C36.7616 9.6959 36.7336 9.61103 36.6818 9.54097C36.6299 9.47091 36.5569 9.41938 36.4736 9.39399C36.3902 9.3686 36.3009 9.3707 36.2188 9.39998C35.4697 9.65621 34.7003 9.84857 33.9188 9.97498C33.8924 9.97745 33.866 9.9715 33.8432 9.95799C33.8205 9.94447 33.8026 9.92409 33.7922 9.89976C33.7817 9.87544 33.7793 9.84844 33.7852 9.82265C33.7911 9.79685 33.8051 9.77359 33.825 9.75623C34.7864 9.06108 35.5649 8.14319 36.0938 7.08123C36.135 7.00434 36.1504 6.91622 36.1376 6.82991C36.1249 6.7436 36.0847 6.66369 36.023 6.602C35.9613 6.54031 35.8814 6.50011 35.7951 6.48737C35.7088 6.47462 35.6207 6.49 35.5438 6.53123C34.8386 6.88622 34.1048 7.18102 33.35 7.41248C32.9699 7.52391 32.5684 7.54176 32.1799 7.46449C31.7914 7.38722 31.4273 7.21713 31.1188 6.96873C29.8741 5.98159 28.3323 5.44417 26.7438 5.44373C25.1439 5.45828 23.5943 6.00485 22.3394 6.99727C21.0844 7.98969 20.1954 9.37153 19.8125 10.925C19.7835 11.0544 19.7848 11.1887 19.8162 11.3176C19.8476 11.4464 19.9083 11.5663 19.9935 11.6679C20.0788 11.7694 20.1863 11.85 20.3078 11.9033C20.4292 11.9565 20.5613 11.9811 20.6938 11.975C21.6184 11.9374 22.5383 11.8225 23.4438 11.6312C23.7354 11.5633 24.0416 11.5991 24.3097 11.7326C24.5778 11.8661 24.7909 12.0888 24.9125 12.3625C24.9803 12.5246 25.0131 12.6991 25.0089 12.8747C25.0047 13.0504 24.9635 13.2231 24.888 13.3818C24.8125 13.5404 24.7044 13.6813 24.5708 13.7954C24.4372 13.9095 24.281 13.9941 24.1125 14.0437C22.1268 14.5304 20.0647 14.6218 18.0438 14.3125C13.321 13.6529 8.98389 11.3437 5.80001 7.79373C5.70328 7.68259 5.57895 7.59894 5.43956 7.55121C5.30017 7.50349 5.15065 7.49338 5.00611 7.52191C4.86156 7.55044 4.7271 7.61659 4.6163 7.7137C4.50549 7.81081 4.42226 7.93542 4.37501 8.07498C4.10924 8.85581 3.97409 9.67515 3.97501 10.5C3.97124 11.6993 4.25878 12.8816 4.81292 13.9453C5.36706 15.0089 6.17122 15.9221 7.15626 16.6062Z" fill="#F7F7F7"/>
</svg>
